<?xml version="1.0" standalone="no"?>
<!DOCTYPE svg PUBLIC "-//W3C//DTD SVG 20010904//EN"
 "http://www.w3.org/TR/2001/REC-SVG-20010904/DTD/svg10.dtd">
<svg version="1.0" xmlns="http://www.w3.org/2000/svg"
 width="138.000000pt" height="138.000000pt" viewBox="0 0 138.000000 138.000000"
 preserveAspectRatio="xMidYMid meet">
<style>@media (prefers-color-scheme: dark) {
.a { fill: #E1E2EB }
}
</style>
<g transform="translate(0.000000,138.000000) scale(0.100000,-0.100000)">
<path  class="a" fill="#364374" d="M314 1363 c2 -10 8 -80 12 -156 l7 -139 -24 2 c-13 1 -85 2 -160 1
l-136 -1 13 -68 c7 -37 17 -79 22 -93 6 -14 13 -51 17 -82 4 -31 11 -57 15
-57 5 0 11 -24 15 -52 4 -29 13 -69 20 -89 7 -20 16 -62 20 -93 4 -31 11 -56
15 -56 4 0 10 -22 14 -50 4 -27 13 -67 20 -88 8 -22 17 -65 21 -96 4 -31 11
-56 15 -56 4 0 11 -27 15 -60 4 -33 12 -63 18 -67 10 -6 279 -12 725 -16 l224
-2 -7 45 c-3 25 -11 60 -17 78 -5 18 -8 35 -6 37 2 2 32 -3 68 -10 36 -7 66
-13 67 -12 4 5 3 129 -2 197 -16 212 -16 215 -31 435 -3 39 -7 102 -10 140 -2
39 -6 102 -8 141 -7 130 -12 138 -91 150 -43 6 -91 14 -115 18 -14 3 -41 7
-60 10 -19 3 -47 8 -63 10 -15 3 -42 7 -60 10 -17 3 -44 8 -60 10 -15 3 -41 7
-57 10 -17 3 -42 7 -58 10 -15 3 -43 7 -62 10 -38 6 -80 13 -123 20 -15 3 -39
7 -55 10 -15 2 -53 7 -85 11 -54 6 -58 5 -53 -12z m498 -229 l287 -47 5 -41
c11 -83 47 -658 42 -663 -10 -10 -26 9 -26 33 0 13 -5 32 -10 42 -10 17 -31
105 -51 212 -6 30 -15 64 -20 75 -5 11 -13 43 -18 70 -5 28 -14 62 -19 76 -6
14 -13 51 -17 82 -4 31 -11 57 -16 57 -5 0 -9 9 -9 20 0 23 20 22 -267 21
l-213 0 0 22 c0 12 -3 40 -7 61 -6 39 -6 39 23 34 16 -4 158 -27 316 -54z
m-551 -234 c27 0 29 -3 31 -37 l1 -38 4 38 c4 32 8 37 29 37 20 0 24 -5 24
-27 0 -29 32 -517 34 -520 0 -1 138 -27 306 -57 356 -66 392 -79 205 -78 -505
4 -525 5 -525 22 0 9 -4 20 -9 26 -11 11 -31 125 -32 185 -1 39 -2 41 -8 14
-6 -27 -8 -24 -15 25 -4 30 -11 59 -15 65 -5 5 -13 35 -19 65 -25 125 -44 206
-52 225 -18 42 -19 67 -3 61 8 -3 28 -6 44 -6z m595 -60 c5 -30 13 -62 16 -70
7 -15 17 -57 47 -195 10 -44 20 -87 23 -95 4 -8 9 -27 12 -43 6 -25 4 -27 -16
-22 -13 2 -110 20 -217 39 -106 19 -195 37 -197 39 -2 2 -9 67 -14 143 -5 76
-12 167 -16 202 l-6 62 179 -2 178 -3 11 -55z"/>
</g>
</svg>
